<svg width="512" height="512" viewBox="0 0 512 512" fill="none" xmlns="http://www.w3.org/2000/svg">
<path d="M0 69.8182C0 31.2587 31.2587 0 69.8182 0H442.182C480.741 0 512 31.2587 512 69.8182V442.182C512 480.741 480.741 512 442.182 512H69.8182C31.2587 512 0 480.741 0 442.182V69.8182Z"/>
<path d="M83.7818 470.109L224.031 41.8909H292.624L432.873 470.109H354.48L268.739 182.591C267.718 179.329 266.493 174.944 265.064 169.439C263.839 163.933 262.614 158.122 261.389 152.004C260.165 145.887 259.144 140.177 258.327 134.875C257.307 140.177 256.184 145.887 254.959 152.004C253.734 158.122 252.509 163.933 251.284 169.439C250.059 174.944 248.937 179.329 247.916 182.591L162.174 470.109H83.7818ZM174.423 375.901L194.021 309.833H322.633L342.232 375.901H174.423Z" fill="white"/>
</svg>
