<svg width="1920" height="1080" viewBox="0 0 1920 1080" fill="none" xmlns="http://www.w3.org/2000/svg">
<g clip-path="url(#clip0_17_815)">
<g opacity="0.25">
<rect x="1557.68" y="173.586" width="749.806" height="749.806" transform="rotate(-30 1557.68 173.586)" stroke="url(#paint0_linear_17_815)" stroke-opacity="0.5"/>
<rect x="519.683" y="445.586" width="749.806" height="749.806" transform="rotate(-30 519.683 445.586)" stroke="url(#paint1_linear_17_815)" stroke-opacity="0.5"/>
<rect x="531.683" y="100.586" width="749.806" height="749.806" transform="rotate(-30 531.683 100.586)" stroke="url(#paint2_linear_17_815)" stroke-opacity="0.5"/>
<rect x="1897.59" y="1078.94" width="749.806" height="749.806" transform="rotate(-120 1897.59 1078.94)" stroke="url(#paint3_linear_17_815)" stroke-opacity="0.5"/>
<rect x="187.931" y="78.5802" width="749.806" height="749.806" transform="rotate(60 187.931 78.5802)" stroke="url(#paint4_linear_17_815)" stroke-opacity="0.5"/>
<circle cx="1033" cy="859" r="2" fill="#ABB2BF"/>
<circle cx="1047.75" cy="859" r="2" fill="#ABB2BF"/>
<circle cx="1062.5" cy="859" r="2" fill="#ABB2BF"/>
<circle cx="1077.25" cy="859" r="2" fill="#ABB2BF"/>
<circle cx="1092" cy="859" r="2" fill="#ABB2BF"/>
<circle cx="1033" cy="873.75" r="2" fill="#ABB2BF"/>
<circle cx="1047.75" cy="873.75" r="2" fill="#ABB2BF"/>
<circle cx="1062.5" cy="873.75" r="2" fill="#ABB2BF"/>
<circle cx="1077.25" cy="873.75" r="2" fill="#ABB2BF"/>
<circle cx="1092" cy="873.75" r="2" fill="#ABB2BF"/>
<circle cx="1033" cy="888.5" r="2" fill="#ABB2BF"/>
<circle cx="1047.75" cy="888.5" r="2" fill="#ABB2BF"/>
<circle cx="1062.5" cy="888.5" r="2" fill="#ABB2BF"/>
<circle cx="1077.25" cy="888.5" r="2" fill="#ABB2BF"/>
<circle cx="1092" cy="888.5" r="2" fill="#ABB2BF"/>
<circle cx="1033" cy="903.25" r="2" fill="#ABB2BF"/>
<circle cx="1047.75" cy="903.25" r="2" fill="#ABB2BF"/>
<circle cx="1062.5" cy="903.25" r="2" fill="#ABB2BF"/>
<circle cx="1077.25" cy="903.25" r="2" fill="#ABB2BF"/>
<circle cx="1092" cy="903.25" r="2" fill="#ABB2BF"/>
<circle cx="1033" cy="918" r="2" fill="#ABB2BF"/>
<circle cx="1047.75" cy="918" r="2" fill="#ABB2BF"/>
<circle cx="1062.5" cy="918" r="2" fill="#ABB2BF"/>
<circle cx="1077.25" cy="918" r="2" fill="#ABB2BF"/>
<circle cx="1092" cy="918" r="2" fill="#ABB2BF"/>
<circle cx="1106" cy="859" r="2" fill="#ABB2BF"/>
<circle cx="1120.75" cy="859" r="2" fill="#ABB2BF"/>
<circle cx="1135.5" cy="859" r="2" fill="#ABB2BF"/>
<circle cx="1150.25" cy="859" r="2" fill="#ABB2BF"/>
<circle cx="1165" cy="859" r="2" fill="#ABB2BF"/>
<circle cx="1106" cy="873.75" r="2" fill="#ABB2BF"/>
<circle cx="1120.75" cy="873.75" r="2" fill="#ABB2BF"/>
<circle cx="1135.5" cy="873.75" r="2" fill="#ABB2BF"/>
<circle cx="1150.25" cy="873.75" r="2" fill="#ABB2BF"/>
<circle cx="1165" cy="873.75" r="2" fill="#ABB2BF"/>
<circle cx="1106" cy="888.5" r="2" fill="#ABB2BF"/>
<circle cx="1120.75" cy="888.5" r="2" fill="#ABB2BF"/>
<circle cx="1135.5" cy="888.5" r="2" fill="#ABB2BF"/>
<circle cx="1150.25" cy="888.5" r="2" fill="#ABB2BF"/>
<circle cx="1165" cy="888.5" r="2" fill="#ABB2BF"/>
<circle cx="1106" cy="903.25" r="2" fill="#ABB2BF"/>
<circle cx="1120.75" cy="903.25" r="2" fill="#ABB2BF"/>
<circle cx="1135.5" cy="903.25" r="2" fill="#ABB2BF"/>
<circle cx="1150.25" cy="903.25" r="2" fill="#ABB2BF"/>
<circle cx="1165" cy="903.25" r="2" fill="#ABB2BF"/>
<circle cx="1106" cy="918" r="2" fill="#ABB2BF"/>
<circle cx="1120.75" cy="918" r="2" fill="#ABB2BF"/>
<circle cx="1135.5" cy="918" r="2" fill="#ABB2BF"/>
<circle cx="1150.25" cy="918" r="2" fill="#ABB2BF"/>
<circle cx="1165" cy="918" r="2" fill="#ABB2BF"/>
<circle cx="1033" cy="931" r="2" fill="#ABB2BF"/>
<circle cx="1047.75" cy="931" r="2" fill="#ABB2BF"/>
<circle cx="1062.5" cy="931" r="2" fill="#ABB2BF"/>
<circle cx="1077.25" cy="931" r="2" fill="#ABB2BF"/>
<circle cx="1092" cy="931" r="2" fill="#ABB2BF"/>
<circle cx="1033" cy="945.75" r="2" fill="#ABB2BF"/>
<circle cx="1047.75" cy="945.75" r="2" fill="#ABB2BF"/>
<circle cx="1062.5" cy="945.75" r="2" fill="#ABB2BF"/>
<circle cx="1077.25" cy="945.75" r="2" fill="#ABB2BF"/>
<circle cx="1092" cy="945.75" r="2" fill="#ABB2BF"/>
<circle cx="1033" cy="960.5" r="2" fill="#ABB2BF"/>
<circle cx="1047.75" cy="960.5" r="2" fill="#ABB2BF"/>
<circle cx="1062.5" cy="960.5" r="2" fill="#ABB2BF"/>
<circle cx="1077.25" cy="960.5" r="2" fill="#ABB2BF"/>
<circle cx="1092" cy="960.5" r="2" fill="#ABB2BF"/>
<circle cx="1033" cy="975.25" r="2" fill="#ABB2BF"/>
<circle cx="1047.75" cy="975.25" r="2" fill="#ABB2BF"/>
<circle cx="1062.5" cy="975.25" r="2" fill="#ABB2BF"/>
<circle cx="1077.25" cy="975.25" r="2" fill="#ABB2BF"/>
<circle cx="1092" cy="975.25" r="2" fill="#ABB2BF"/>
<circle cx="1033" cy="990" r="2" fill="#ABB2BF"/>
<circle cx="1047.75" cy="990" r="2" fill="#ABB2BF"/>
<circle cx="1062.5" cy="990" r="2" fill="#ABB2BF"/>
<circle cx="1077.25" cy="990" r="2" fill="#ABB2BF"/>
<circle cx="1092" cy="990" r="2" fill="#ABB2BF"/>
<circle cx="1106" cy="931" r="2" fill="#ABB2BF"/>
<circle cx="1120.75" cy="931" r="2" fill="#ABB2BF"/>
<circle cx="1135.5" cy="931" r="2" fill="#ABB2BF"/>
<circle cx="1150.25" cy="931" r="2" fill="#ABB2BF"/>
<circle cx="1165" cy="931" r="2" fill="#ABB2BF"/>
<circle cx="1106" cy="945.75" r="2" fill="#ABB2BF"/>
<circle cx="1120.75" cy="945.75" r="2" fill="#ABB2BF"/>
<circle cx="1135.5" cy="945.75" r="2" fill="#ABB2BF"/>
<circle cx="1150.25" cy="945.75" r="2" fill="#ABB2BF"/>
<circle cx="1165" cy="945.75" r="2" fill="#ABB2BF"/>
<circle cx="1106" cy="960.5" r="2" fill="#ABB2BF"/>
<circle cx="1120.75" cy="960.5" r="2" fill="#ABB2BF"/>
<circle cx="1135.5" cy="960.5" r="2" fill="#ABB2BF"/>
<circle cx="1150.25" cy="960.5" r="2" fill="#ABB2BF"/>
<circle cx="1165" cy="960.5" r="2" fill="#ABB2BF"/>
<circle cx="1106" cy="975.25" r="2" fill="#ABB2BF"/>
<circle cx="1120.75" cy="975.25" r="2" fill="#ABB2BF"/>
<circle cx="1135.5" cy="975.25" r="2" fill="#ABB2BF"/>
<circle cx="1150.25" cy="975.25" r="2" fill="#ABB2BF"/>
<circle cx="1165" cy="975.25" r="2" fill="#ABB2BF"/>
<circle cx="1106" cy="990" r="2" fill="#ABB2BF"/>
<circle cx="1120.75" cy="990" r="2" fill="#ABB2BF"/>
<circle cx="1135.5" cy="990" r="2" fill="#ABB2BF"/>
<circle cx="1150.25" cy="990" r="2" fill="#ABB2BF"/>
<circle cx="1165" cy="990" r="2" fill="#ABB2BF"/>
<circle cx="61.7321" cy="189.732" r="2" transform="rotate(-30 61.7321 189.732)" fill="#ABB2BF"/>
<circle cx="74.506" cy="182.357" r="2" transform="rotate(-30 74.506 182.357)" fill="#ABB2BF"/>
<circle cx="87.2798" cy="174.982" r="2" transform="rotate(-30 87.2798 174.982)" fill="#ABB2BF"/>
<circle cx="100.054" cy="167.607" r="2" transform="rotate(-30 100.054 167.607)" fill="#ABB2BF"/>
<circle cx="112.828" cy="160.232" r="2" transform="rotate(-30 112.828 160.232)" fill="#ABB2BF"/>
<circle cx="69.107" cy="202.506" r="2" transform="rotate(-30 69.107 202.506)" fill="#ABB2BF"/>
<circle cx="81.881" cy="195.131" r="2" transform="rotate(-30 81.881 195.131)" fill="#ABB2BF"/>
<circle cx="94.6548" cy="187.756" r="2" transform="rotate(-30 94.6548 187.756)" fill="#ABB2BF"/>
<circle cx="107.429" cy="180.381" r="2" transform="rotate(-30 107.429 180.381)" fill="#ABB2BF"/>
<circle cx="120.203" cy="173.006" r="2" transform="rotate(-30 120.203 173.006)" fill="#ABB2BF"/>
<circle cx="76.482" cy="215.28" r="2" transform="rotate(-30 76.482 215.28)" fill="#ABB2BF"/>
<circle cx="89.256" cy="207.905" r="2" transform="rotate(-30 89.256 207.905)" fill="#ABB2BF"/>
<circle cx="102.03" cy="200.53" r="2" transform="rotate(-30 102.03 200.53)" fill="#ABB2BF"/>
<circle cx="114.804" cy="193.155" r="2" transform="rotate(-30 114.804 193.155)" fill="#ABB2BF"/>
<circle cx="127.578" cy="185.78" r="2" transform="rotate(-30 127.578 185.78)" fill="#ABB2BF"/>
<circle cx="83.857" cy="228.054" r="2" transform="rotate(-30 83.857 228.054)" fill="#ABB2BF"/>
<circle cx="96.631" cy="220.679" r="2" transform="rotate(-30 96.631 220.679)" fill="#ABB2BF"/>
<circle cx="109.405" cy="213.304" r="2" transform="rotate(-30 109.405 213.304)" fill="#ABB2BF"/>
<circle cx="122.179" cy="205.929" r="2" transform="rotate(-30 122.179 205.929)" fill="#ABB2BF"/>
<circle cx="134.953" cy="198.554" r="2" transform="rotate(-30 134.953 198.554)" fill="#ABB2BF"/>
<circle cx="91.232" cy="240.828" r="2" transform="rotate(-30 91.232 240.828)" fill="#ABB2BF"/>
<circle cx="104.006" cy="233.453" r="2" transform="rotate(-30 104.006 233.453)" fill="#ABB2BF"/>
<circle cx="116.78" cy="226.078" r="2" transform="rotate(-30 116.78 226.078)" fill="#ABB2BF"/>
<circle cx="129.554" cy="218.703" r="2" transform="rotate(-30 129.554 218.703)" fill="#ABB2BF"/>
<circle cx="142.328" cy="211.328" r="2" transform="rotate(-30 142.328 211.328)" fill="#ABB2BF"/>
<circle cx="124.952" cy="153.232" r="2" transform="rotate(-30 124.952 153.232)" fill="#ABB2BF"/>
<circle cx="137.726" cy="145.857" r="2" transform="rotate(-30 137.726 145.857)" fill="#ABB2BF"/>
<circle cx="150.5" cy="138.482" r="2" transform="rotate(-30 150.5 138.482)" fill="#ABB2BF"/>
<circle cx="163.274" cy="131.107" r="2" transform="rotate(-30 163.274 131.107)" fill="#ABB2BF"/>
<circle cx="176.047" cy="123.732" r="2" transform="rotate(-30 176.047 123.732)" fill="#ABB2BF"/>
<circle cx="132.327" cy="166.006" r="2" transform="rotate(-30 132.327 166.006)" fill="#ABB2BF"/>
<circle cx="145.101" cy="158.631" r="2" transform="rotate(-30 145.101 158.631)" fill="#ABB2BF"/>
<circle cx="157.875" cy="151.256" r="2" transform="rotate(-30 157.875 151.256)" fill="#ABB2BF"/>
<circle cx="170.649" cy="143.881" r="2" transform="rotate(-30 170.649 143.881)" fill="#ABB2BF"/>
<circle cx="183.422" cy="136.506" r="2" transform="rotate(-30 183.422 136.506)" fill="#ABB2BF"/>
<circle cx="139.702" cy="178.78" r="2" transform="rotate(-30 139.702 178.78)" fill="#ABB2BF"/>
<circle cx="152.476" cy="171.405" r="2" transform="rotate(-30 152.476 171.405)" fill="#ABB2BF"/>
<circle cx="165.25" cy="164.03" r="2" transform="rotate(-30 165.25 164.03)" fill="#ABB2BF"/>
<circle cx="178.024" cy="156.655" r="2" transform="rotate(-30 178.024 156.655)" fill="#ABB2BF"/>
<circle cx="190.797" cy="149.28" r="2" transform="rotate(-30 190.797 149.28)" fill="#ABB2BF"/>
<circle cx="147.077" cy="191.554" r="2" transform="rotate(-30 147.077 191.554)" fill="#ABB2BF"/>
<circle cx="159.851" cy="184.179" r="2" transform="rotate(-30 159.851 184.179)" fill="#ABB2BF"/>
<circle cx="172.625" cy="176.804" r="2" transform="rotate(-30 172.625 176.804)" fill="#ABB2BF"/>
<circle cx="185.399" cy="169.429" r="2" transform="rotate(-30 185.399 169.429)" fill="#ABB2BF"/>
<circle cx="198.172" cy="162.054" r="2" transform="rotate(-30 198.172 162.054)" fill="#ABB2BF"/>
<circle cx="154.452" cy="204.328" r="2" transform="rotate(-30 154.452 204.328)" fill="#ABB2BF"/>
<circle cx="167.226" cy="196.953" r="2" transform="rotate(-30 167.226 196.953)" fill="#ABB2BF"/>
<circle cx="180" cy="189.578" r="2" transform="rotate(-30 180 189.578)" fill="#ABB2BF"/>
<circle cx="192.774" cy="182.203" r="2" transform="rotate(-30 192.774 182.203)" fill="#ABB2BF"/>
<circle cx="205.547" cy="174.828" r="2" transform="rotate(-30 205.547 174.828)" fill="#ABB2BF"/>
<circle cx="97.732" cy="252.086" r="2" transform="rotate(-30 97.732 252.086)" fill="#ABB2BF"/>
<circle cx="110.506" cy="244.711" r="2" transform="rotate(-30 110.506 244.711)" fill="#ABB2BF"/>
<circle cx="123.28" cy="237.336" r="2" transform="rotate(-30 123.28 237.336)" fill="#ABB2BF"/>
<circle cx="136.054" cy="229.961" r="2" transform="rotate(-30 136.054 229.961)" fill="#ABB2BF"/>
<circle cx="148.828" cy="222.586" r="2" transform="rotate(-30 148.828 222.586)" fill="#ABB2BF"/>
<circle cx="105.107" cy="264.86" r="2" transform="rotate(-30 105.107 264.86)" fill="#ABB2BF"/>
<circle cx="117.881" cy="257.485" r="2" transform="rotate(-30 117.881 257.485)" fill="#ABB2BF"/>
<circle cx="130.655" cy="250.11" r="2" transform="rotate(-30 130.655 250.11)" fill="#ABB2BF"/>
<circle cx="143.429" cy="242.735" r="2" transform="rotate(-30 143.429 242.735)" fill="#ABB2BF"/>
<circle cx="156.203" cy="235.36" r="2" transform="rotate(-30 156.203 235.36)" fill="#ABB2BF"/>
<circle cx="112.482" cy="277.634" r="2" transform="rotate(-30 112.482 277.634)" fill="#ABB2BF"/>
<circle cx="125.256" cy="270.259" r="2" transform="rotate(-30 125.256 270.259)" fill="#ABB2BF"/>
<circle cx="138.03" cy="262.884" r="2" transform="rotate(-30 138.03 262.884)" fill="#ABB2BF"/>
<circle cx="150.804" cy="255.509" r="2" transform="rotate(-30 150.804 255.509)" fill="#ABB2BF"/>
<circle cx="163.578" cy="248.134" r="2" transform="rotate(-30 163.578 248.134)" fill="#ABB2BF"/>
<circle cx="119.857" cy="290.408" r="2" transform="rotate(-30 119.857 290.408)" fill="#ABB2BF"/>
<circle cx="132.631" cy="283.033" r="2" transform="rotate(-30 132.631 283.033)" fill="#ABB2BF"/>
<circle cx="145.405" cy="275.658" r="2" transform="rotate(-30 145.405 275.658)" fill="#ABB2BF"/>
<circle cx="158.179" cy="268.283" r="2" transform="rotate(-30 158.179 268.283)" fill="#ABB2BF"/>
<circle cx="170.953" cy="260.908" r="2" transform="rotate(-30 170.953 260.908)" fill="#ABB2BF"/>
<circle cx="127.232" cy="303.181" r="2" transform="rotate(-30 127.232 303.181)" fill="#ABB2BF"/>
<circle cx="140.006" cy="295.806" r="2" transform="rotate(-30 140.006 295.806)" fill="#ABB2BF"/>
<circle cx="152.78" cy="288.431" r="2" transform="rotate(-30 152.78 288.431)" fill="#ABB2BF"/>
<circle cx="165.554" cy="281.056" r="2" transform="rotate(-30 165.554 281.056)" fill="#ABB2BF"/>
<circle cx="178.328" cy="273.681" r="2" transform="rotate(-30 178.328 273.681)" fill="#ABB2BF"/>
<circle cx="160.952" cy="215.586" r="2" transform="rotate(-30 160.952 215.586)" fill="#ABB2BF"/>
<circle cx="173.726" cy="208.211" r="2" transform="rotate(-30 173.726 208.211)" fill="#ABB2BF"/>
<circle cx="186.5" cy="200.836" r="2" transform="rotate(-30 186.5 200.836)" fill="#ABB2BF"/>
<circle cx="199.274" cy="193.461" r="2" transform="rotate(-30 199.274 193.461)" fill="#ABB2BF"/>
<circle cx="212.047" cy="186.086" r="2" transform="rotate(-30 212.047 186.086)" fill="#ABB2BF"/>
<circle cx="168.327" cy="228.36" r="2" transform="rotate(-30 168.327 228.36)" fill="#ABB2BF"/>
<circle cx="181.101" cy="220.985" r="2" transform="rotate(-30 181.101 220.985)" fill="#ABB2BF"/>
<circle cx="193.875" cy="213.61" r="2" transform="rotate(-30 193.875 213.61)" fill="#ABB2BF"/>
<circle cx="206.649" cy="206.235" r="2" transform="rotate(-30 206.649 206.235)" fill="#ABB2BF"/>
<circle cx="219.422" cy="198.86" r="2" transform="rotate(-30 219.422 198.86)" fill="#ABB2BF"/>
<circle cx="175.702" cy="241.134" r="2" transform="rotate(-30 175.702 241.134)" fill="#ABB2BF"/>
<circle cx="188.476" cy="233.759" r="2" transform="rotate(-30 188.476 233.759)" fill="#ABB2BF"/>
<circle cx="201.25" cy="226.384" r="2" transform="rotate(-30 201.25 226.384)" fill="#ABB2BF"/>
<circle cx="214.024" cy="219.009" r="2" transform="rotate(-30 214.024 219.009)" fill="#ABB2BF"/>
<circle cx="226.797" cy="211.634" r="2" transform="rotate(-30 226.797 211.634)" fill="#ABB2BF"/>
<circle cx="183.077" cy="253.908" r="2" transform="rotate(-30 183.077 253.908)" fill="#ABB2BF"/>
<circle cx="195.851" cy="246.533" r="2" transform="rotate(-30 195.851 246.533)" fill="#ABB2BF"/>
<circle cx="208.625" cy="239.158" r="2" transform="rotate(-30 208.625 239.158)" fill="#ABB2BF"/>
<circle cx="221.399" cy="231.783" r="2" transform="rotate(-30 221.399 231.783)" fill="#ABB2BF"/>
<circle cx="234.172" cy="224.408" r="2" transform="rotate(-30 234.172 224.408)" fill="#ABB2BF"/>
<circle cx="190.452" cy="266.681" r="2" transform="rotate(-30 190.452 266.681)" fill="#ABB2BF"/>
<circle cx="203.226" cy="259.306" r="2" transform="rotate(-30 203.226 259.306)" fill="#ABB2BF"/>
<circle cx="216" cy="251.931" r="2" transform="rotate(-30 216 251.931)" fill="#ABB2BF"/>
<circle cx="228.774" cy="244.556" r="2" transform="rotate(-30 228.774 244.556)" fill="#ABB2BF"/>
<circle cx="241.547" cy="237.181" r="2" transform="rotate(-30 241.547 237.181)" fill="#ABB2BF"/>
<circle cx="1702.73" cy="359.732" r="2" transform="rotate(-30 1702.73 359.732)" fill="#ABB2BF"/>
<circle cx="1715.51" cy="352.357" r="2" transform="rotate(-30 1715.51 352.357)" fill="#ABB2BF"/>
<circle cx="1728.28" cy="344.982" r="2" transform="rotate(-30 1728.28 344.982)" fill="#ABB2BF"/>
<circle cx="1741.05" cy="337.607" r="2" transform="rotate(-30 1741.05 337.607)" fill="#ABB2BF"/>
<circle cx="1753.83" cy="330.232" r="2" transform="rotate(-30 1753.83 330.232)" fill="#ABB2BF"/>
<circle cx="1710.11" cy="372.506" r="2" transform="rotate(-30 1710.11 372.506)" fill="#ABB2BF"/>
<circle cx="1722.88" cy="365.131" r="2" transform="rotate(-30 1722.88 365.131)" fill="#ABB2BF"/>
<circle cx="1735.65" cy="357.756" r="2" transform="rotate(-30 1735.65 357.756)" fill="#ABB2BF"/>
<circle cx="1748.43" cy="350.381" r="2" transform="rotate(-30 1748.43 350.381)" fill="#ABB2BF"/>
<circle cx="1761.2" cy="343.006" r="2" transform="rotate(-30 1761.2 343.006)" fill="#ABB2BF"/>
<circle cx="1717.48" cy="385.28" r="2" transform="rotate(-30 1717.48 385.28)" fill="#ABB2BF"/>
<circle cx="1730.26" cy="377.905" r="2" transform="rotate(-30 1730.26 377.905)" fill="#ABB2BF"/>
<circle cx="1743.03" cy="370.53" r="2" transform="rotate(-30 1743.03 370.53)" fill="#ABB2BF"/>
<circle cx="1755.8" cy="363.155" r="2" transform="rotate(-30 1755.8 363.155)" fill="#ABB2BF"/>
<circle cx="1768.58" cy="355.78" r="2" transform="rotate(-30 1768.58 355.78)" fill="#ABB2BF"/>
<circle cx="1724.86" cy="398.054" r="2" transform="rotate(-30 1724.86 398.054)" fill="#ABB2BF"/>
<circle cx="1737.63" cy="390.679" r="2" transform="rotate(-30 1737.63 390.679)" fill="#ABB2BF"/>
<circle cx="1750.4" cy="383.304" r="2" transform="rotate(-30 1750.4 383.304)" fill="#ABB2BF"/>
<circle cx="1763.18" cy="375.929" r="2" transform="rotate(-30 1763.18 375.929)" fill="#ABB2BF"/>
<circle cx="1775.95" cy="368.554" r="2" transform="rotate(-30 1775.95 368.554)" fill="#ABB2BF"/>
<circle cx="1732.23" cy="410.828" r="2" transform="rotate(-30 1732.23 410.828)" fill="#ABB2BF"/>
<circle cx="1745.01" cy="403.453" r="2" transform="rotate(-30 1745.01 403.453)" fill="#ABB2BF"/>
<circle cx="1757.78" cy="396.078" r="2" transform="rotate(-30 1757.78 396.078)" fill="#ABB2BF"/>
<circle cx="1770.55" cy="388.703" r="2" transform="rotate(-30 1770.55 388.703)" fill="#ABB2BF"/>
<circle cx="1783.33" cy="381.328" r="2" transform="rotate(-30 1783.33 381.328)" fill="#ABB2BF"/>
<circle cx="1765.95" cy="323.232" r="2" transform="rotate(-30 1765.95 323.232)" fill="#ABB2BF"/>
<circle cx="1778.73" cy="315.857" r="2" transform="rotate(-30 1778.73 315.857)" fill="#ABB2BF"/>
<circle cx="1791.5" cy="308.482" r="2" transform="rotate(-30 1791.5 308.482)" fill="#ABB2BF"/>
<circle cx="1804.27" cy="301.107" r="2" transform="rotate(-30 1804.27 301.107)" fill="#ABB2BF"/>
<circle cx="1817.05" cy="293.732" r="2" transform="rotate(-30 1817.05 293.732)" fill="#ABB2BF"/>
<circle cx="1773.33" cy="336.006" r="2" transform="rotate(-30 1773.33 336.006)" fill="#ABB2BF"/>
<circle cx="1786.1" cy="328.631" r="2" transform="rotate(-30 1786.1 328.631)" fill="#ABB2BF"/>
<circle cx="1798.87" cy="321.256" r="2" transform="rotate(-30 1798.87 321.256)" fill="#ABB2BF"/>
<circle cx="1811.65" cy="313.881" r="2" transform="rotate(-30 1811.65 313.881)" fill="#ABB2BF"/>
<circle cx="1824.42" cy="306.506" r="2" transform="rotate(-30 1824.42 306.506)" fill="#ABB2BF"/>
<circle cx="1780.7" cy="348.78" r="2" transform="rotate(-30 1780.7 348.78)" fill="#ABB2BF"/>
<circle cx="1793.48" cy="341.405" r="2" transform="rotate(-30 1793.48 341.405)" fill="#ABB2BF"/>
<circle cx="1806.25" cy="334.03" r="2" transform="rotate(-30 1806.25 334.03)" fill="#ABB2BF"/>
<circle cx="1819.02" cy="326.655" r="2" transform="rotate(-30 1819.02 326.655)" fill="#ABB2BF"/>
<circle cx="1831.8" cy="319.28" r="2" transform="rotate(-30 1831.8 319.28)" fill="#ABB2BF"/>
<circle cx="1788.08" cy="361.554" r="2" transform="rotate(-30 1788.08 361.554)" fill="#ABB2BF"/>
<circle cx="1800.85" cy="354.179" r="2" transform="rotate(-30 1800.85 354.179)" fill="#ABB2BF"/>
<circle cx="1813.62" cy="346.804" r="2" transform="rotate(-30 1813.62 346.804)" fill="#ABB2BF"/>
<circle cx="1826.4" cy="339.429" r="2" transform="rotate(-30 1826.4 339.429)" fill="#ABB2BF"/>
<circle cx="1839.17" cy="332.054" r="2" transform="rotate(-30 1839.17 332.054)" fill="#ABB2BF"/>
<circle cx="1795.45" cy="374.328" r="2" transform="rotate(-30 1795.45 374.328)" fill="#ABB2BF"/>
<circle cx="1808.23" cy="366.953" r="2" transform="rotate(-30 1808.23 366.953)" fill="#ABB2BF"/>
<circle cx="1821" cy="359.578" r="2" transform="rotate(-30 1821 359.578)" fill="#ABB2BF"/>
<circle cx="1833.77" cy="352.203" r="2" transform="rotate(-30 1833.77 352.203)" fill="#ABB2BF"/>
<circle cx="1846.55" cy="344.828" r="2" transform="rotate(-30 1846.55 344.828)" fill="#ABB2BF"/>
<circle cx="1738.73" cy="422.086" r="2" transform="rotate(-30 1738.73 422.086)" fill="#ABB2BF"/>
<circle cx="1751.51" cy="414.711" r="2" transform="rotate(-30 1751.51 414.711)" fill="#ABB2BF"/>
<circle cx="1764.28" cy="407.336" r="2" transform="rotate(-30 1764.28 407.336)" fill="#ABB2BF"/>
<circle cx="1777.05" cy="399.961" r="2" transform="rotate(-30 1777.05 399.961)" fill="#ABB2BF"/>
<circle cx="1789.83" cy="392.586" r="2" transform="rotate(-30 1789.83 392.586)" fill="#ABB2BF"/>
<circle cx="1746.11" cy="434.86" r="2" transform="rotate(-30 1746.11 434.86)" fill="#ABB2BF"/>
<circle cx="1758.88" cy="427.485" r="2" transform="rotate(-30 1758.88 427.485)" fill="#ABB2BF"/>
<circle cx="1771.65" cy="420.11" r="2" transform="rotate(-30 1771.65 420.11)" fill="#ABB2BF"/>
<circle cx="1784.43" cy="412.735" r="2" transform="rotate(-30 1784.43 412.735)" fill="#ABB2BF"/>
<circle cx="1797.2" cy="405.36" r="2" transform="rotate(-30 1797.2 405.36)" fill="#ABB2BF"/>
<circle cx="1753.48" cy="447.634" r="2" transform="rotate(-30 1753.48 447.634)" fill="#ABB2BF"/>
<circle cx="1766.26" cy="440.259" r="2" transform="rotate(-30 1766.26 440.259)" fill="#ABB2BF"/>
<circle cx="1779.03" cy="432.884" r="2" transform="rotate(-30 1779.03 432.884)" fill="#ABB2BF"/>
<circle cx="1791.8" cy="425.509" r="2" transform="rotate(-30 1791.8 425.509)" fill="#ABB2BF"/>
<circle cx="1804.58" cy="418.134" r="2" transform="rotate(-30 1804.58 418.134)" fill="#ABB2BF"/>
<circle cx="1760.86" cy="460.408" r="2" transform="rotate(-30 1760.86 460.408)" fill="#ABB2BF"/>
<circle cx="1773.63" cy="453.033" r="2" transform="rotate(-30 1773.63 453.033)" fill="#ABB2BF"/>
<circle cx="1786.4" cy="445.658" r="2" transform="rotate(-30 1786.4 445.658)" fill="#ABB2BF"/>
<circle cx="1799.18" cy="438.283" r="2" transform="rotate(-30 1799.18 438.283)" fill="#ABB2BF"/>
<circle cx="1811.95" cy="430.908" r="2" transform="rotate(-30 1811.95 430.908)" fill="#ABB2BF"/>
<circle cx="1768.23" cy="473.181" r="2" transform="rotate(-30 1768.23 473.181)" fill="#ABB2BF"/>
<circle cx="1781.01" cy="465.806" r="2" transform="rotate(-30 1781.01 465.806)" fill="#ABB2BF"/>
<circle cx="1793.78" cy="458.431" r="2" transform="rotate(-30 1793.78 458.431)" fill="#ABB2BF"/>
<circle cx="1806.55" cy="451.056" r="2" transform="rotate(-30 1806.55 451.056)" fill="#ABB2BF"/>
<circle cx="1819.33" cy="443.681" r="2" transform="rotate(-30 1819.33 443.681)" fill="#ABB2BF"/>
<circle cx="1801.95" cy="385.586" r="2" transform="rotate(-30 1801.95 385.586)" fill="#ABB2BF"/>
<circle cx="1814.73" cy="378.211" r="2" transform="rotate(-30 1814.73 378.211)" fill="#ABB2BF"/>
<circle cx="1827.5" cy="370.836" r="2" transform="rotate(-30 1827.5 370.836)" fill="#ABB2BF"/>
<circle cx="1840.27" cy="363.461" r="2" transform="rotate(-30 1840.27 363.461)" fill="#ABB2BF"/>
<circle cx="1853.05" cy="356.086" r="2" transform="rotate(-30 1853.05 356.086)" fill="#ABB2BF"/>
<circle cx="1809.33" cy="398.36" r="2" transform="rotate(-30 1809.33 398.36)" fill="#ABB2BF"/>
<circle cx="1822.1" cy="390.985" r="2" transform="rotate(-30 1822.1 390.985)" fill="#ABB2BF"/>
<circle cx="1834.87" cy="383.61" r="2" transform="rotate(-30 1834.87 383.61)" fill="#ABB2BF"/>
<circle cx="1847.65" cy="376.235" r="2" transform="rotate(-30 1847.65 376.235)" fill="#ABB2BF"/>
<circle cx="1860.42" cy="368.86" r="2" transform="rotate(-30 1860.42 368.86)" fill="#ABB2BF"/>
<circle cx="1816.7" cy="411.134" r="2" transform="rotate(-30 1816.7 411.134)" fill="#ABB2BF"/>
<circle cx="1829.48" cy="403.759" r="2" transform="rotate(-30 1829.48 403.759)" fill="#ABB2BF"/>
<circle cx="1842.25" cy="396.384" r="2" transform="rotate(-30 1842.25 396.384)" fill="#ABB2BF"/>
<circle cx="1855.02" cy="389.009" r="2" transform="rotate(-30 1855.02 389.009)" fill="#ABB2BF"/>
<circle cx="1867.8" cy="381.634" r="2" transform="rotate(-30 1867.8 381.634)" fill="#ABB2BF"/>
<circle cx="1824.08" cy="423.908" r="2" transform="rotate(-30 1824.08 423.908)" fill="#ABB2BF"/>
<circle cx="1836.85" cy="416.533" r="2" transform="rotate(-30 1836.85 416.533)" fill="#ABB2BF"/>
<circle cx="1849.62" cy="409.158" r="2" transform="rotate(-30 1849.62 409.158)" fill="#ABB2BF"/>
<circle cx="1862.4" cy="401.783" r="2" transform="rotate(-30 1862.4 401.783)" fill="#ABB2BF"/>
<circle cx="1875.17" cy="394.408" r="2" transform="rotate(-30 1875.17 394.408)" fill="#ABB2BF"/>
<circle cx="1831.45" cy="436.681" r="2" transform="rotate(-30 1831.45 436.681)" fill="#ABB2BF"/>
<circle cx="1844.23" cy="429.306" r="2" transform="rotate(-30 1844.23 429.306)" fill="#ABB2BF"/>
<circle cx="1857" cy="421.931" r="2" transform="rotate(-30 1857 421.931)" fill="#ABB2BF"/>
<circle cx="1869.77" cy="414.556" r="2" transform="rotate(-30 1869.77 414.556)" fill="#ABB2BF"/>
<circle cx="1882.55" cy="407.181" r="2" transform="rotate(-30 1882.55 407.181)" fill="#ABB2BF"/>
</g>
</g>
<defs>
<linearGradient id="paint0_linear_17_815" x1="1932.4" y1="173.403" x2="1932.4" y2="908.145" gradientUnits="userSpaceOnUse">
<stop stop-color="white"/>
<stop offset="1" stop-color="white" stop-opacity="0"/>
</linearGradient>
<linearGradient id="paint1_linear_17_815" x1="894.403" y1="445.403" x2="894.403" y2="1180.14" gradientUnits="userSpaceOnUse">
<stop stop-color="white"/>
<stop offset="1" stop-color="white" stop-opacity="0"/>
</linearGradient>
<linearGradient id="paint2_linear_17_815" x1="906.403" y1="100.403" x2="906.403" y2="835.145" gradientUnits="userSpaceOnUse">
<stop stop-color="white"/>
<stop offset="1" stop-color="white" stop-opacity="0"/>
</linearGradient>
<linearGradient id="paint3_linear_17_815" x1="2272.81" y1="1079.62" x2="2272.81" y2="1814.36" gradientUnits="userSpaceOnUse">
<stop stop-color="white"/>
<stop offset="1" stop-color="white" stop-opacity="0"/>
</linearGradient>
<linearGradient id="paint4_linear_17_815" x1="563.518" y1="77.8972" x2="563.518" y2="812.639" gradientUnits="userSpaceOnUse">
<stop stop-color="white"/>
<stop offset="1" stop-color="white" stop-opacity="0"/>
</linearGradient>
<clipPath id="clip0_17_815">
<rect width="1920" height="1080" fill="white"/>
</clipPath>
</defs>
</svg>
